<mxfile host="app.diagrams.net" agent="Mozilla/5.0 (Macintosh; Intel Mac OS X 10_15_7) AppleWebKit/537.36 (KHTML, like Gecko) Chrome/141.0.0.0 Safari/537.36" version="28.0.3">
  <diagram name="QueenAI Architecture" id="architecture">
    <mxGraphModel dx="2066" dy="2360" grid="1" gridSize="10" guides="1" tooltips="1" connect="1" arrows="1" fold="1" page="1" pageScale="1" pageWidth="1600" pageHeight="1200" math="0" shadow="0">
      <root>
        <mxCell id="0" />
        <mxCell id="1" parent="0" />
        <mxCell id="title" value="Agentic Chat Pipeline - Architecture" style="text;html=1;strokeColor=none;fillColor=none;align=center;verticalAlign=middle;whiteSpace=wrap;rounded=0;fontSize=24;fontStyle=1" parent="1" vertex="1">
          <mxGeometry x="450" y="-200" width="600" height="40" as="geometry" />
        </mxCell>
        <mxCell id="streamlit" value="Streamlit UI&#xa;(app.py)" style="rounded=1;whiteSpace=wrap;html=1;fillColor=#d5e8d4;strokeColor=#82b366;fontSize=12;fontStyle=1" parent="1" vertex="1">
          <mxGeometry x="30" y="250" width="120" height="60" as="geometry" />
        </mxCell>
        <mxCell id="coordinator" value="Coordinator Agent&#xa;(Orchestrator)" style="rounded=1;whiteSpace=wrap;html=1;fillColor=#fff2cc;strokeColor=#d6b656;fontSize=12;fontStyle=1" parent="1" vertex="1">
          <mxGeometry x="230" y="270" width="140" height="30" as="geometry" />
        </mxCell>
        <mxCell id="arrow2" value="invoke_agent()" style="endArrow=classic;html=1;rounded=0;exitX=1;exitY=0.5;exitDx=0;exitDy=0;entryX=0;entryY=0.5;entryDx=0;entryDy=0;" parent="1" source="streamlit" target="coordinator" edge="1">
          <mxGeometry relative="1" as="geometry" />
        </mxCell>
        <mxCell id="arrow3" value="1. Analyze Question" style="endArrow=classic;html=1;rounded=0;exitX=1;exitY=0.25;exitDx=0;exitDy=0;entryX=0;entryY=0.5;entryDx=0;entryDy=0;" parent="1" source="coordinator" target="datasource" edge="1">
          <mxGeometry relative="1" as="geometry" />
        </mxCell>
        <mxCell id="arrow4" value="2. Retrieve Data" style="endArrow=classic;html=1;rounded=0;exitX=1;exitY=0.5;exitDx=0;exitDy=0;entryX=0;entryY=0.5;entryDx=0;entryDy=0;" parent="1" source="coordinator" target="retrieval" edge="1">
          <mxGeometry relative="1" as="geometry" />
        </mxCell>
        <mxCell id="arrow5" value="3. Generate Insights" style="endArrow=classic;html=1;rounded=0;exitX=1;exitY=0.75;exitDx=0;exitDy=0;entryX=0;entryY=0.5;entryDx=0;entryDy=0;" parent="1" source="coordinator" target="analysis" edge="1">
          <mxGeometry relative="1" as="geometry" />
        </mxCell>
        <mxCell id="lambda1" value="Get Available KPIs&#xa;Lambda" style="rounded=1;whiteSpace=wrap;html=1;fillColor=#ffe6cc;strokeColor=#d79b00;fontSize=10" parent="1" vertex="1">
          <mxGeometry x="680" y="200" width="120" height="30" as="geometry" />
        </mxCell>
        <mxCell id="lambda2" value="Get KPI Data&#xa;Lambda" style="rounded=1;whiteSpace=wrap;html=1;fillColor=#ffe6cc;strokeColor=#d79b00;fontSize=10" parent="1" vertex="1">
          <mxGeometry x="680" y="300" width="110" height="30" as="geometry" />
        </mxCell>
        <mxCell id="lambda3" value="SQL Executor&#xa;Lambda" style="rounded=1;whiteSpace=wrap;html=1;fillColor=#ffe6cc;strokeColor=#d79b00;fontSize=10" parent="1" vertex="1">
          <mxGeometry x="680" y="430" width="120" height="30" as="geometry" />
        </mxCell>
        <mxCell id="arrow6" value="" style="endArrow=classic;html=1;rounded=0;exitX=1;exitY=0.5;exitDx=0;exitDy=0;entryX=0;entryY=0.5;entryDx=0;entryDy=0;dashed=1;" parent="1" source="datasource" target="lambda1" edge="1">
          <mxGeometry relative="1" as="geometry" />
        </mxCell>
        <mxCell id="arrow7" value="" style="endArrow=classic;html=1;rounded=0;exitX=1;exitY=0.25;exitDx=0;exitDy=0;entryX=0;entryY=0.5;entryDx=0;entryDy=0;dashed=1;" parent="1" source="retrieval" target="lambda2" edge="1">
          <mxGeometry relative="1" as="geometry" />
        </mxCell>
        <mxCell id="arrow8" value="" style="endArrow=classic;html=1;rounded=0;exitX=1;exitY=0.75;exitDx=0;exitDy=0;entryX=0;entryY=0.5;entryDx=0;entryDy=0;dashed=1;" parent="1" source="retrieval" target="lambda3" edge="1">
          <mxGeometry relative="1" as="geometry" />
        </mxCell>
        <mxCell id="database" value="MySQL/PostgreSQL&#xa;Database&#xa;(KPI + Transactional Data)" style="shape=cylinder3;whiteSpace=wrap;html=1;boundedLbl=1;backgroundOutline=1;size=15;fillColor=#f8cecc;strokeColor=#b85450;fontSize=11;fontStyle=1" parent="1" vertex="1">
          <mxGeometry x="880" y="290" width="120" height="100" as="geometry" />
        </mxCell>
        <mxCell id="arrow9" value="Query KPIs" style="endArrow=classic;html=1;rounded=0;exitX=1;exitY=0.5;exitDx=0;exitDy=0;entryX=0;entryY=0.25;entryDx=0;entryDy=0;entryPerimeter=0;" parent="1" source="lambda2" target="database" edge="1">
          <mxGeometry relative="1" as="geometry" />
        </mxCell>
        <mxCell id="arrow10" value="Execute SQL" style="endArrow=classic;html=1;rounded=0;exitX=1;exitY=0.5;exitDx=0;exitDy=0;entryX=0;entryY=0.75;entryDx=0;entryDy=0;entryPerimeter=0;" parent="1" source="lambda3" target="database" edge="1">
          <mxGeometry relative="1" as="geometry" />
        </mxCell>
        <mxCell id="arrow11" value="Web Search Query" style="endArrow=classic;html=1;rounded=0;exitX=1;exitY=1;exitDx=0;exitDy=0;entryX=0.5;entryY=0;entryDx=0;entryDy=0;dashed=1;" parent="1" source="streamlit" target="browser_agent" edge="1">
          <mxGeometry relative="1" as="geometry" />
        </mxCell>
        <mxCell id="response_box" value="" style="rounded=1;whiteSpace=wrap;html=1;fillColor=#e1f5e1;strokeColor=#82b366;dashed=1;dashPattern=8 8;" parent="1" vertex="1">
          <mxGeometry x="240" y="-120" width="960" height="120" as="geometry" />
        </mxCell>
        <mxCell id="response_label" value="Response Flow (JSON Format)" style="text;html=1;strokeColor=none;fillColor=none;align=left;verticalAlign=top;whiteSpace=wrap;rounded=0;fontSize=12;fontStyle=2" parent="1" vertex="1">
          <mxGeometry x="260" y="-120" width="200" height="20" as="geometry" />
        </mxCell>
        <mxCell id="response1" value="Analysis Agent&#xa;Returns JSON:&#xa;{response, suggested_questions}" style="rounded=1;whiteSpace=wrap;html=1;fillColor=#e1d5e7;strokeColor=#9673a6;fontSize=10" parent="1" vertex="1">
          <mxGeometry x="270" y="-90" width="180" height="60" as="geometry" />
        </mxCell>
        <mxCell id="response2" value="Coordinator&#xa;Formats Response&#xa;with JSON" style="rounded=1;whiteSpace=wrap;html=1;fillColor=#fff2cc;strokeColor=#d6b656;fontSize=10" parent="1" vertex="1">
          <mxGeometry x="490" y="-90" width="140" height="60" as="geometry" />
        </mxCell>
        <mxCell id="response3" value="Streamlit&#xa;Parses JSON&#xa;Extracts Questions" style="rounded=1;whiteSpace=wrap;html=1;fillColor=#d5e8d4;strokeColor=#82b366;fontSize=10" parent="1" vertex="1">
          <mxGeometry x="670" y="-90" width="140" height="60" as="geometry" />
        </mxCell>
        <mxCell id="response4" value="User Sees:&#xa;• Answer&#xa;• Follow-up Questions&#xa;• Token Usage" style="rounded=1;whiteSpace=wrap;html=1;fillColor=#dae8fc;strokeColor=#6c8ebf;fontSize=10;align=left;" parent="1" vertex="1">
          <mxGeometry x="850" y="-90" width="160" height="60" as="geometry" />
        </mxCell>
        <mxCell id="arrow14" value="" style="endArrow=classic;html=1;rounded=0;exitX=1;exitY=0.5;exitDx=0;exitDy=0;entryX=0;entryY=0.5;entryDx=0;entryDy=0;" parent="1" source="response1" target="response2" edge="1">
          <mxGeometry relative="1" as="geometry" />
        </mxCell>
        <mxCell id="arrow15" value="" style="endArrow=classic;html=1;rounded=0;exitX=1;exitY=0.5;exitDx=0;exitDy=0;entryX=0;entryY=0.5;entryDx=0;entryDy=0;" parent="1" source="response2" target="response3" edge="1">
          <mxGeometry relative="1" as="geometry" />
        </mxCell>
        <mxCell id="arrow16" value="" style="endArrow=classic;html=1;rounded=0;exitX=1;exitY=0.5;exitDx=0;exitDy=0;entryX=0;entryY=0.5;entryDx=0;entryDy=0;" parent="1" source="response3" target="response4" edge="1">
          <mxGeometry relative="1" as="geometry" />
        </mxCell>
        <mxCell id="cloudwatch" value="CloudWatch Logs&#xa;(Token Usage Tracking)" style="rounded=1;whiteSpace=wrap;html=1;fillColor=#f8cecc;strokeColor=#b85450;fontSize=10" parent="1" vertex="1">
          <mxGeometry x="680" y="70" width="120" height="60" as="geometry" />
        </mxCell>
        <mxCell id="arrow18" value="Query Tokens" style="endArrow=classic;startArrow=classic;html=1;rounded=0;entryX=0.5;entryY=0;entryDx=0;entryDy=0;dashed=1;" parent="1" source="response3" target="cloudwatch" edge="1">
          <mxGeometry relative="1" as="geometry">
            <Array as="points">
              <mxPoint x="740" y="-40" />
            </Array>
            <mxPoint x="670" y="-100" as="sourcePoint" />
          </mxGeometry>
        </mxCell>
        <mxCell id="legend_box" value="" style="rounded=1;whiteSpace=wrap;html=1;fillColor=#ffffff;strokeColor=#000000;" parent="1" vertex="1">
          <mxGeometry x="1100" y="150" width="200" height="280" as="geometry" />
        </mxCell>
        <mxCell id="legend_title" value="Legend" style="text;html=1;strokeColor=none;fillColor=none;align=center;verticalAlign=middle;whiteSpace=wrap;rounded=0;fontSize=14;fontStyle=1" parent="1" vertex="1">
          <mxGeometry x="1100" y="160" width="200" height="30" as="geometry" />
        </mxCell>
        <mxCell id="legend1" value="" style="rounded=1;whiteSpace=wrap;html=1;fillColor=#d5e8d4;strokeColor=#82b366;" parent="1" vertex="1">
          <mxGeometry x="1120" y="200" width="40" height="20" as="geometry" />
        </mxCell>
        <mxCell id="legend1_text" value="UI Layer" style="text;html=1;strokeColor=none;fillColor=none;align=left;verticalAlign=middle;whiteSpace=wrap;rounded=0;fontSize=10" parent="1" vertex="1">
          <mxGeometry x="1170" y="195" width="100" height="30" as="geometry" />
        </mxCell>
        <mxCell id="legend2" value="" style="rounded=1;whiteSpace=wrap;html=1;fillColor=#fff2cc;strokeColor=#d6b656;" parent="1" vertex="1">
          <mxGeometry x="1120" y="230" width="40" height="20" as="geometry" />
        </mxCell>
        <mxCell id="legend2_text" value="Coordinator" style="text;html=1;strokeColor=none;fillColor=none;align=left;verticalAlign=middle;whiteSpace=wrap;rounded=0;fontSize=10" parent="1" vertex="1">
          <mxGeometry x="1170" y="225" width="100" height="30" as="geometry" />
        </mxCell>
        <mxCell id="legend3" value="" style="rounded=1;whiteSpace=wrap;html=1;fillColor=#e1d5e7;strokeColor=#9673a6;" parent="1" vertex="1">
          <mxGeometry x="1120" y="260" width="40" height="20" as="geometry" />
        </mxCell>
        <mxCell id="legend3_text" value="Sub-Agents" style="text;html=1;strokeColor=none;fillColor=none;align=left;verticalAlign=middle;whiteSpace=wrap;rounded=0;fontSize=10" parent="1" vertex="1">
          <mxGeometry x="1170" y="255" width="100" height="30" as="geometry" />
        </mxCell>
        <mxCell id="legend4" value="" style="rounded=1;whiteSpace=wrap;html=1;fillColor=#ffe6cc;strokeColor=#d79b00;" parent="1" vertex="1">
          <mxGeometry x="1120" y="290" width="40" height="20" as="geometry" />
        </mxCell>
        <mxCell id="legend4_text" value="Lambda Functions" style="text;html=1;strokeColor=none;fillColor=none;align=left;verticalAlign=middle;whiteSpace=wrap;rounded=0;fontSize=10" parent="1" vertex="1">
          <mxGeometry x="1170" y="285" width="120" height="30" as="geometry" />
        </mxCell>
        <mxCell id="legend5" value="" style="shape=cylinder3;whiteSpace=wrap;html=1;boundedLbl=1;backgroundOutline=1;size=5;fillColor=#f8cecc;strokeColor=#b85450;" parent="1" vertex="1">
          <mxGeometry x="1120" y="320" width="40" height="30" as="geometry" />
        </mxCell>
        <mxCell id="legend5_text" value="Database/Logs" style="text;html=1;strokeColor=none;fillColor=none;align=left;verticalAlign=middle;whiteSpace=wrap;rounded=0;fontSize=10" parent="1" vertex="1">
          <mxGeometry x="1170" y="320" width="100" height="30" as="geometry" />
        </mxCell>
        <mxCell id="legend6" value="" style="rounded=1;whiteSpace=wrap;html=1;fillColor=#dae8fc;strokeColor=#6c8ebf;" parent="1" vertex="1">
          <mxGeometry x="1120" y="360" width="40" height="20" as="geometry" />
        </mxCell>
        <mxCell id="legend6_text" value="Browser Agent" style="text;html=1;strokeColor=none;fillColor=none;align=left;verticalAlign=middle;whiteSpace=wrap;rounded=0;fontSize=10" parent="1" vertex="1">
          <mxGeometry x="1170" y="355" width="100" height="30" as="geometry" />
        </mxCell>
        <mxCell id="legend7" value="" style="endArrow=classic;html=1;rounded=0;" parent="1" edge="1">
          <mxGeometry width="50" height="50" relative="1" as="geometry">
            <mxPoint x="1120" y="400" as="sourcePoint" />
            <mxPoint x="1160" y="400" as="targetPoint" />
          </mxGeometry>
        </mxCell>
        <mxCell id="legend7_text" value="Synchronous Call" style="text;html=1;strokeColor=none;fillColor=none;align=left;verticalAlign=middle;whiteSpace=wrap;rounded=0;fontSize=10" parent="1" vertex="1">
          <mxGeometry x="1170" y="390" width="120" height="30" as="geometry" />
        </mxCell>
        <mxCell id="legend8" value="" style="endArrow=classic;html=1;rounded=0;dashed=1;" parent="1" edge="1">
          <mxGeometry width="50" height="50" relative="1" as="geometry">
            <mxPoint x="1120" y="420" as="sourcePoint" />
            <mxPoint x="1160" y="420" as="targetPoint" />
          </mxGeometry>
        </mxCell>
        <mxCell id="legend8_text" value="Optional/Async" style="text;html=1;strokeColor=none;fillColor=none;align=left;verticalAlign=middle;whiteSpace=wrap;rounded=0;fontSize=10" parent="1" vertex="1">
          <mxGeometry x="1170" y="410" width="100" height="30" as="geometry" />
        </mxCell>
        <mxCell id="features_box" value="" style="rounded=1;whiteSpace=wrap;html=1;fillColor=#fff9e6;strokeColor=#d6b656;" parent="1" vertex="1">
          <mxGeometry x="1100" y="460" width="200" height="180" as="geometry" />
        </mxCell>
        <mxCell id="features_title" value="Key Features" style="text;html=1;strokeColor=none;fillColor=none;align=center;verticalAlign=middle;whiteSpace=wrap;rounded=0;fontSize=14;fontStyle=1" parent="1" vertex="1">
          <mxGeometry x="1100" y="470" width="200" height="30" as="geometry" />
        </mxCell>
        <mxCell id="features_text" value="• Multi-Agent Orchestration&#xa;• Autonomous Data Retrieval&#xa;• KPI + SQL Hybrid Approach&#xa;• Dynamic Follow-up Questions&#xa;• Token Usage Tracking&#xa;• Context-Aware Conversations&#xa;• Web Search Integration&#xa;• JSON Response Format" style="text;html=1;strokeColor=none;fillColor=none;align=left;verticalAlign=top;whiteSpace=wrap;rounded=0;fontSize=10" parent="1" vertex="1">
          <mxGeometry x="1110" y="500" width="180" height="130" as="geometry" />
        </mxCell>
        <mxCell id="Xrxthp3ojpOLr-zoiy8w-17" value="" style="edgeStyle=orthogonalEdgeStyle;rounded=0;orthogonalLoop=1;jettySize=auto;html=1;" edge="1" parent="1" source="Xrxthp3ojpOLr-zoiy8w-1" target="streamlit">
          <mxGeometry relative="1" as="geometry" />
        </mxCell>
        <mxCell id="Xrxthp3ojpOLr-zoiy8w-1" value="" style="shape=actor;whiteSpace=wrap;html=1;" vertex="1" parent="1">
          <mxGeometry x="70" y="135" width="40" height="60" as="geometry" />
        </mxCell>
        <mxCell id="Xrxthp3ojpOLr-zoiy8w-2" value="" style="sketch=0;points=[[0,0,0],[0.25,0,0],[0.5,0,0],[0.75,0,0],[1,0,0],[0,1,0],[0.25,1,0],[0.5,1,0],[0.75,1,0],[1,1,0],[0,0.25,0],[0,0.5,0],[0,0.75,0],[1,0.25,0],[1,0.5,0],[1,0.75,0]];outlineConnect=0;fontColor=#232F3E;fillColor=#01A88D;strokeColor=#ffffff;dashed=0;verticalLabelPosition=bottom;verticalAlign=top;align=center;html=1;fontSize=12;fontStyle=0;aspect=fixed;shape=mxgraph.aws4.resourceIcon;resIcon=mxgraph.aws4.augmented_ai;" vertex="1" parent="1">
          <mxGeometry x="261" y="182" width="78" height="78" as="geometry" />
        </mxCell>
        <mxCell id="Xrxthp3ojpOLr-zoiy8w-4" value="Amazon Bedrock" style="points=[[0,0],[0.25,0],[0.5,0],[0.75,0],[1,0],[1,0.25],[1,0.5],[1,0.75],[1,1],[0.75,1],[0.5,1],[0.25,1],[0,1],[0,0.75],[0,0.5],[0,0.25]];outlineConnect=0;gradientColor=none;html=1;whiteSpace=wrap;fontSize=12;fontStyle=0;container=1;pointerEvents=0;collapsible=0;recursiveResize=0;shape=mxgraph.aws4.group;grIcon=mxgraph.aws4.group_iot_greengrass_deployment;strokeColor=#7AA116;fillColor=none;verticalAlign=top;align=left;spacingLeft=30;fontColor=#3F8624;dashed=0;" vertex="1" parent="1">
          <mxGeometry x="170" y="70" width="490" height="650" as="geometry" />
        </mxCell>
        <mxCell id="browser_box" value="" style="rounded=1;whiteSpace=wrap;html=1;fillColor=#f5f5f5;strokeColor=#666666;dashed=1;dashPattern=8 8;" parent="Xrxthp3ojpOLr-zoiy8w-4" vertex="1">
          <mxGeometry x="30" y="460" width="400" height="180" as="geometry" />
        </mxCell>
        <mxCell id="browser_label" value="Optional: Web Search Mode" style="text;html=1;strokeColor=none;fillColor=none;align=left;verticalAlign=top;whiteSpace=wrap;rounded=0;fontSize=12;fontStyle=2" parent="Xrxthp3ojpOLr-zoiy8w-4" vertex="1">
          <mxGeometry x="40" y="470" width="180" height="20" as="geometry" />
        </mxCell>
        <mxCell id="browser_agent" value="Browser Agent&#xa;(Nova Act)" style="rounded=1;whiteSpace=wrap;html=1;fillColor=#dae8fc;strokeColor=#6c8ebf;fontSize=11;fontStyle=1" parent="Xrxthp3ojpOLr-zoiy8w-4" vertex="1">
          <mxGeometry x="160" y="490" width="120" height="60" as="geometry" />
        </mxCell>
        <mxCell id="external_search" value="External Search&#xa;Agent" style="rounded=1;whiteSpace=wrap;html=1;fillColor=#dae8fc;strokeColor=#6c8ebf;fontSize=11;fontStyle=1" parent="Xrxthp3ojpOLr-zoiy8w-4" vertex="1">
          <mxGeometry x="160" y="570" width="120" height="60" as="geometry" />
        </mxCell>
        <mxCell id="arrow12" value="" style="endArrow=classic;html=1;rounded=0;exitX=0.5;exitY=1;exitDx=0;exitDy=0;entryX=0.5;entryY=0;entryDx=0;entryDy=0;" parent="Xrxthp3ojpOLr-zoiy8w-4" source="browser_agent" target="external_search" edge="1">
          <mxGeometry relative="1" as="geometry" />
        </mxCell>
        <mxCell id="Xrxthp3ojpOLr-zoiy8w-5" value="" style="sketch=0;points=[[0,0,0],[0.25,0,0],[0.5,0,0],[0.75,0,0],[1,0,0],[0,1,0],[0.25,1,0],[0.5,1,0],[0.75,1,0],[1,1,0],[0,0.25,0],[0,0.5,0],[0,0.75,0],[1,0.25,0],[1,0.5,0],[1,0.75,0]];outlineConnect=0;fontColor=#232F3E;fillColor=#01A88D;strokeColor=#ffffff;dashed=0;verticalLabelPosition=bottom;verticalAlign=top;align=center;html=1;fontSize=12;fontStyle=0;aspect=fixed;shape=mxgraph.aws4.resourceIcon;resIcon=mxgraph.aws4.augmented_ai;" vertex="1" parent="Xrxthp3ojpOLr-zoiy8w-4">
          <mxGeometry x="330" y="70" width="50" height="50" as="geometry" />
        </mxCell>
        <mxCell id="datasource" value="Data Source Agent&#xa;(Determines KPI vs SQL)" style="rounded=1;whiteSpace=wrap;html=1;fillColor=#e1d5e7;strokeColor=#9673a6;fontSize=11;fontStyle=1" parent="Xrxthp3ojpOLr-zoiy8w-4" vertex="1">
          <mxGeometry x="280" y="130" width="160" height="30" as="geometry" />
        </mxCell>
        <mxCell id="Xrxthp3ojpOLr-zoiy8w-6" value="" style="sketch=0;points=[[0,0,0],[0.25,0,0],[0.5,0,0],[0.75,0,0],[1,0,0],[0,1,0],[0.25,1,0],[0.5,1,0],[0.75,1,0],[1,1,0],[0,0.25,0],[0,0.5,0],[0,0.75,0],[1,0.25,0],[1,0.5,0],[1,0.75,0]];outlineConnect=0;fontColor=#232F3E;fillColor=#01A88D;strokeColor=#ffffff;dashed=0;verticalLabelPosition=bottom;verticalAlign=top;align=center;html=1;fontSize=12;fontStyle=0;aspect=fixed;shape=mxgraph.aws4.resourceIcon;resIcon=mxgraph.aws4.augmented_ai;" vertex="1" parent="Xrxthp3ojpOLr-zoiy8w-4">
          <mxGeometry x="330" y="180" width="50" height="50" as="geometry" />
        </mxCell>
        <mxCell id="retrieval" value="Smart Retrieval Agent&#xa;(Fetches Data)" style="rounded=1;whiteSpace=wrap;html=1;fillColor=#e1d5e7;strokeColor=#9673a6;fontSize=11;fontStyle=1" parent="Xrxthp3ojpOLr-zoiy8w-4" vertex="1">
          <mxGeometry x="290" y="240" width="130" height="35" as="geometry" />
        </mxCell>
        <mxCell id="Xrxthp3ojpOLr-zoiy8w-7" value="" style="sketch=0;points=[[0,0,0],[0.25,0,0],[0.5,0,0],[0.75,0,0],[1,0,0],[0,1,0],[0.25,1,0],[0.5,1,0],[0.75,1,0],[1,1,0],[0,0.25,0],[0,0.5,0],[0,0.75,0],[1,0.25,0],[1,0.5,0],[1,0.75,0]];outlineConnect=0;fontColor=#232F3E;fillColor=#01A88D;strokeColor=#ffffff;dashed=0;verticalLabelPosition=bottom;verticalAlign=top;align=center;html=1;fontSize=12;fontStyle=0;aspect=fixed;shape=mxgraph.aws4.resourceIcon;resIcon=mxgraph.aws4.augmented_ai;" vertex="1" parent="Xrxthp3ojpOLr-zoiy8w-4">
          <mxGeometry x="330" y="300" width="50" height="50" as="geometry" />
        </mxCell>
        <mxCell id="analysis" value="Analysis Agent&#xa;(Generates Insights)" style="rounded=1;whiteSpace=wrap;html=1;fillColor=#e1d5e7;strokeColor=#9673a6;fontSize=11;fontStyle=1" parent="Xrxthp3ojpOLr-zoiy8w-4" vertex="1">
          <mxGeometry x="290" y="360" width="130" height="40" as="geometry" />
        </mxCell>
        <mxCell id="Xrxthp3ojpOLr-zoiy8w-15" value="" style="sketch=0;points=[[0,0,0],[0.25,0,0],[0.5,0,0],[0.75,0,0],[1,0,0],[0,1,0],[0.25,1,0],[0.5,1,0],[0.75,1,0],[1,1,0],[0,0.25,0],[0,0.5,0],[0,0.75,0],[1,0.25,0],[1,0.5,0],[1,0.75,0]];outlineConnect=0;fontColor=#232F3E;fillColor=#01A88D;strokeColor=#ffffff;dashed=0;verticalLabelPosition=bottom;verticalAlign=top;align=center;html=1;fontSize=12;fontStyle=0;aspect=fixed;shape=mxgraph.aws4.resourceIcon;resIcon=mxgraph.aws4.augmented_ai;" vertex="1" parent="Xrxthp3ojpOLr-zoiy8w-4">
          <mxGeometry x="310" y="520" width="78" height="78" as="geometry" />
        </mxCell>
        <mxCell id="Xrxthp3ojpOLr-zoiy8w-16" value="" style="sketch=0;points=[[0,0,0],[0.25,0,0],[0.5,0,0],[0.75,0,0],[1,0,0],[0,1,0],[0.25,1,0],[0.5,1,0],[0.75,1,0],[1,1,0],[0,0.25,0],[0,0.5,0],[0,0.75,0],[1,0.25,0],[1,0.5,0],[1,0.75,0]];outlineConnect=0;fontColor=#232F3E;fillColor=#01A88D;strokeColor=#ffffff;dashed=0;verticalLabelPosition=bottom;verticalAlign=top;align=center;html=1;fontSize=12;fontStyle=0;aspect=fixed;shape=mxgraph.aws4.resourceIcon;resIcon=mxgraph.aws4.bedrock;" vertex="1" parent="Xrxthp3ojpOLr-zoiy8w-4">
          <mxGeometry width="30" height="30" as="geometry" />
        </mxCell>
        <mxCell id="web" value="Web&#xa;(Internet)" style="ellipse;shape=cloud;whiteSpace=wrap;html=1;fillColor=#f5f5f5;strokeColor=#666666;fontSize=11" parent="1" vertex="1">
          <mxGeometry x="350" y="760" width="100" height="60" as="geometry" />
        </mxCell>
        <mxCell id="arrow13" value="Search" style="endArrow=classic;html=1;rounded=0;exitX=0.5;exitY=1;exitDx=0;exitDy=0;entryX=0.48;entryY=0.017;entryDx=0;entryDy=0;entryPerimeter=0;" parent="1" source="external_search" target="web" edge="1">
          <mxGeometry x="0.0008" relative="1" as="geometry">
            <mxPoint as="offset" />
          </mxGeometry>
        </mxCell>
        <mxCell id="Xrxthp3ojpOLr-zoiy8w-8" value="" style="sketch=0;points=[[0,0,0],[0.25,0,0],[0.5,0,0],[0.75,0,0],[1,0,0],[0,1,0],[0.25,1,0],[0.5,1,0],[0.75,1,0],[1,1,0],[0,0.25,0],[0,0.5,0],[0,0.75,0],[1,0.25,0],[1,0.5,0],[1,0.75,0]];outlineConnect=0;fontColor=#232F3E;fillColor=#ED7100;strokeColor=#ffffff;dashed=0;verticalLabelPosition=bottom;verticalAlign=top;align=center;html=1;fontSize=12;fontStyle=0;aspect=fixed;shape=mxgraph.aws4.resourceIcon;resIcon=mxgraph.aws4.lambda;" vertex="1" parent="1">
          <mxGeometry x="710" y="145" width="50" height="50" as="geometry" />
        </mxCell>
        <mxCell id="Xrxthp3ojpOLr-zoiy8w-9" value="" style="sketch=0;points=[[0,0,0],[0.25,0,0],[0.5,0,0],[0.75,0,0],[1,0,0],[0,1,0],[0.25,1,0],[0.5,1,0],[0.75,1,0],[1,1,0],[0,0.25,0],[0,0.5,0],[0,0.75,0],[1,0.25,0],[1,0.5,0],[1,0.75,0]];outlineConnect=0;fontColor=#232F3E;fillColor=#ED7100;strokeColor=#ffffff;dashed=0;verticalLabelPosition=bottom;verticalAlign=top;align=center;html=1;fontSize=12;fontStyle=0;aspect=fixed;shape=mxgraph.aws4.resourceIcon;resIcon=mxgraph.aws4.lambda;" vertex="1" parent="1">
          <mxGeometry x="710" y="245" width="50" height="50" as="geometry" />
        </mxCell>
        <mxCell id="Xrxthp3ojpOLr-zoiy8w-11" value="" style="sketch=0;points=[[0,0,0],[0.25,0,0],[0.5,0,0],[0.75,0,0],[1,0,0],[0,1,0],[0.25,1,0],[0.5,1,0],[0.75,1,0],[1,1,0],[0,0.25,0],[0,0.5,0],[0,0.75,0],[1,0.25,0],[1,0.5,0],[1,0.75,0]];outlineConnect=0;fontColor=#232F3E;fillColor=#ED7100;strokeColor=#ffffff;dashed=0;verticalLabelPosition=bottom;verticalAlign=top;align=center;html=1;fontSize=12;fontStyle=0;aspect=fixed;shape=mxgraph.aws4.resourceIcon;resIcon=mxgraph.aws4.lambda;" vertex="1" parent="1">
          <mxGeometry x="710" y="370" width="50" height="50" as="geometry" />
        </mxCell>
        <mxCell id="Xrxthp3ojpOLr-zoiy8w-14" value="" style="sketch=0;points=[[0,0,0],[0.25,0,0],[0.5,0,0],[0.75,0,0],[1,0,0],[0,1,0],[0.25,1,0],[0.5,1,0],[0.75,1,0],[1,1,0],[0,0.25,0],[0,0.5,0],[0,0.75,0],[1,0.25,0],[1,0.5,0],[1,0.75,0]];outlineConnect=0;fontColor=#232F3E;fillColor=#C925D1;strokeColor=#ffffff;dashed=0;verticalLabelPosition=bottom;verticalAlign=top;align=center;html=1;fontSize=12;fontStyle=0;aspect=fixed;shape=mxgraph.aws4.resourceIcon;resIcon=mxgraph.aws4.rds;" vertex="1" parent="1">
          <mxGeometry x="915" y="225" width="50" height="50" as="geometry" />
        </mxCell>
        <mxCell id="Xrxthp3ojpOLr-zoiy8w-20" value="AWS Cloud" style="points=[[0,0],[0.25,0],[0.5,0],[0.75,0],[1,0],[1,0.25],[1,0.5],[1,0.75],[1,1],[0.75,1],[0.5,1],[0.25,1],[0,1],[0,0.75],[0,0.5],[0,0.25]];outlineConnect=0;gradientColor=none;html=1;whiteSpace=wrap;fontSize=12;fontStyle=0;container=1;pointerEvents=0;collapsible=0;recursiveResize=0;shape=mxgraph.aws4.group;grIcon=mxgraph.aws4.group_aws_cloud_alt;strokeColor=#232F3E;fillColor=none;verticalAlign=top;align=left;spacingLeft=30;fontColor=#232F3E;dashed=0;" vertex="1" parent="1">
          <mxGeometry x="160" y="35" width="900" height="705" as="geometry" />
        </mxCell>
        <mxCell id="Xrxthp3ojpOLr-zoiy8w-22" value="" style="sketch=0;points=[[0,0,0],[0.25,0,0],[0.5,0,0],[0.75,0,0],[1,0,0],[0,1,0],[0.25,1,0],[0.5,1,0],[0.75,1,0],[1,1,0],[0,0.25,0],[0,0.5,0],[0,0.75,0],[1,0.25,0],[1,0.5,0],[1,0.75,0]];points=[[0,0,0],[0.25,0,0],[0.5,0,0],[0.75,0,0],[1,0,0],[0,1,0],[0.25,1,0],[0.5,1,0],[0.75,1,0],[1,1,0],[0,0.25,0],[0,0.5,0],[0,0.75,0],[1,0.25,0],[1,0.5,0],[1,0.75,0]];outlineConnect=0;fontColor=#232F3E;fillColor=#E7157B;strokeColor=#ffffff;dashed=0;verticalLabelPosition=bottom;verticalAlign=top;align=center;html=1;fontSize=12;fontStyle=0;aspect=fixed;shape=mxgraph.aws4.resourceIcon;resIcon=mxgraph.aws4.cloudwatch_2;" vertex="1" parent="Xrxthp3ojpOLr-zoiy8w-20">
          <mxGeometry x="660" y="41" width="48" height="48" as="geometry" />
        </mxCell>
      </root>
    </mxGraphModel>
  </diagram>
</mxfile>
